<?xml version="1.0" encoding="UTF-8"?>
<svg id="Layer_1" data-name="Layer 1" xmlns="http://www.w3.org/2000/svg" viewBox="0 0 17.78 17.78">
  <path d="M15.39,0H2.4C1.07,0,0,1.07,0,2.4v12.99c0,1.32,1.07,2.4,2.4,2.4h12.99c1.32,0,2.4-1.07,2.4-2.4V2.4c0-1.32-1.07-2.4-2.4-2.4ZM14.7,12c0,.8-.65,1.45-1.45,1.45H4.54c-.8,0-1.45-.65-1.45-1.45v-4.72l4.93,3.7c.52.39,1.22.39,1.74,0l4.93-3.7v4.72ZM14.26,6.71l-4.93,3.7c-.26.19-.61.19-.87,0l-4.93-3.7c-.27-.21-.44-.53-.44-.87,0-.6.49-1.09,1.09-1.09h9.43c.6,0,1.09.49,1.09,1.09,0,.34-.16.66-.44.87Z"/>
</svg>