<?xml version="1.0" encoding="UTF-8"?>
<svg id="Layer_1" data-name="Layer 1" xmlns="http://www.w3.org/2000/svg" viewBox="0 0 99.72 17.78">
  <path d="M62.93,8.16c-.55,0-1,.19-1.37.58-.37.39-.55.94-.55,1.66s.18,1.27.54,1.66c.36.39.81.58,1.36.58.35,0,.67-.08.98-.25s.55-.42.73-.76c.18-.34.27-.75.27-1.23,0-.72-.19-1.27-.57-1.66-.38-.39-.84-.58-1.39-.58Z"/>
  <path d="M96.67,0H3.05C1.37,0,0,1.37,0,3.05v11.68c0,1.68,1.37,3.05,3.05,3.05h93.62c1.68,0,3.05-1.37,3.05-3.05V3.05c0-1.68-1.37-3.05-3.05-3.05ZM16.13,10.55c-.13.66-.4,1.28-.82,1.84-.42.56-.96,1.02-1.62,1.36-.66.34-1.4.51-2.22.51-.92,0-1.75-.21-2.49-.62-.74-.41-1.32-.99-1.75-1.73-.42-.74-.63-1.57-.63-2.51s.21-1.78.63-2.52c.42-.74,1.01-1.32,1.75-1.73.74-.41,1.57-.62,2.48-.62,1.07,0,2.01.26,2.8.78.79.52,1.34,1.26,1.64,2.2h-2.2c-.22-.4-.52-.71-.9-.91-.38-.21-.83-.31-1.34-.31-.56,0-1.06.13-1.5.38-.44.25-.78.62-1.02,1.09-.25.47-.37,1.02-.37,1.64s.12,1.19.38,1.67c.25.47.6.84,1.04,1.09s.96.38,1.56.38c.73,0,1.32-.19,1.79-.58s.77-.93.91-1.62h-3.28v-1.46h5.16v1.67ZM24.66,10.97h-5.53c.05.55.24.97.57,1.28.34.31.75.46,1.24.46.71,0,1.21-.3,1.51-.91h2.06c-.22.73-.64,1.33-1.26,1.79-.62.47-1.38.7-2.28.7-.73,0-1.38-.16-1.96-.48s-1.03-.78-1.35-1.37c-.32-.59-.48-1.27-.48-2.05s.16-1.47.48-2.06c.32-.59.76-1.05,1.34-1.36s1.23-.48,1.98-.48,1.36.15,1.93.46c.57.31,1.01.75,1.32,1.32s.47,1.22.47,1.96c0,.27-.02.52-.05.74ZM30.16,8.19h-1.69v3.66c0,.26.06.44.18.55.12.11.33.17.62.17h.89v1.61h-1.2c-1.61,0-2.42-.78-2.42-2.35v-3.64h-.9v-1.57h.9v-1.87h1.92v1.87h1.69v1.57ZM36.98,14.18h-1.91v-7.56h1.91v7.56ZM36.87,5.4c-.22.21-.5.32-.84.32s-.62-.11-.84-.32-.33-.48-.33-.8.11-.58.33-.8.5-.32.84-.32.62.11.84.32c.22.21.33.48.33.8s-.11.58-.33.8ZM46.2,14.18h-1.91v-4.18c0-.6-.15-1.06-.45-1.39-.3-.32-.71-.48-1.23-.48s-.94.16-1.25.48c-.3.32-.46.78-.46,1.39v4.18h-1.91v-7.56h1.91v.94c.25-.33.58-.58.98-.77.4-.19.83-.28,1.3-.28.9,0,1.63.28,2.18.85.56.57.83,1.36.83,2.38v4.44ZM58.02,6.2h-2.54v7.98h-1.91v-7.98h-2.54v-1.54h6.99v1.54ZM66.33,12.45c-.35.59-.82,1.05-1.42,1.37s-1.26.48-2,.48-1.38-.16-1.97-.48c-.58-.32-1.04-.78-1.37-1.37-.33-.59-.5-1.27-.5-2.05s.17-1.46.51-2.05c.34-.59.81-1.05,1.4-1.37s1.25-.48,1.98-.48,1.39.16,1.98.48,1.06.78,1.4,1.37c.34.59.51,1.27.51,2.05s-.18,1.46-.53,2.05ZM75.53,14.18h-1.92v-.96c-.25.33-.57.58-.96.77-.4.19-.83.28-1.29.28-.59,0-1.11-.12-1.57-.38-.45-.25-.81-.62-1.07-1.11-.26-.49-.39-1.07-.39-1.74v-4.44h1.91v4.16c0,.6.15,1.06.45,1.39.3.32.71.49,1.23.49s.94-.16,1.24-.49c.3-.32.45-.78.45-1.39v-4.16h1.92v7.56ZM79.49,12.07c.32.4.75.59,1.3.59.77,0,1.28-.35,1.51-1.04h2.06c-.21.82-.62,1.47-1.24,1.95s-1.39.72-2.32.72c-.73,0-1.37-.16-1.94-.48s-1.01-.78-1.32-1.37c-.32-.59-.48-1.27-.48-2.05s.16-1.47.48-2.05c.32-.59.76-1.04,1.32-1.37s1.21-.48,1.94-.48c.94,0,1.71.23,2.33.7.61.47,1.03,1.13,1.24,1.97h-2.06c-.11-.33-.29-.58-.55-.77-.26-.19-.58-.28-.96-.28-.55,0-.98.2-1.3.59-.32.39-.48.96-.48,1.68s.16,1.28.48,1.67ZM93.11,14.18h-1.91v-4.18c0-.6-.15-1.06-.45-1.39-.3-.32-.71-.48-1.23-.48s-.94.16-1.25.48c-.3.32-.46.78-.46,1.39v4.18h-1.91V4.08h1.91v3.48c.25-.33.57-.58.98-.77.41-.19.86-.28,1.37-.28.57,0,1.08.12,1.53.38s.79.62,1.04,1.11c.25.49.38,1.07.38,1.75v4.44Z"/>
  <path d="M20.94,8.07c-.47,0-.87.14-1.19.43-.32.29-.52.69-.59,1.19h3.59c0-.49-.19-.89-.53-1.18-.35-.3-.77-.44-1.27-.44Z"/>
</svg>