<?xml version="1.0" encoding="UTF-8"?>
<svg id="Layer_1" data-name="Layer 1" xmlns="http://www.w3.org/2000/svg" viewBox="0 0 17.78 17.78">
  <path d="M8.89,6.2c-.52,0-1,.28-1.26.73s-.26,1,0,1.45.74.73,1.26.73,1-.28,1.26-.73.26-1,0-1.45-.74-.73-1.26-.73Z"/>
  <path d="M15.39,0H2.4C1.07,0,0,1.07,0,2.4v12.99c0,1.32,1.07,2.4,2.4,2.4h12.99c1.32,0,2.4-1.07,2.4-2.4V2.4c0-1.32-1.07-2.4-2.4-2.4ZM9.43,14.62c-.28.35-.8.35-1.08,0-1.16-1.46-3.82-4.98-3.82-6.97,0-2.4,1.95-4.35,4.35-4.35s4.35,1.95,4.35,4.35c0,1.98-2.65,5.51-3.82,6.97Z"/>
</svg>