<?xml version="1.0" encoding="UTF-8"?>
<svg id="Layer_1" data-name="Layer 1" xmlns="http://www.w3.org/2000/svg" viewBox="0 0 17.78 17.78">
  <path d="M15.39,0H2.4C1.07,0,0,1.07,0,2.4v12.99c0,1.32,1.07,2.4,2.4,2.4h12.99c1.32,0,2.4-1.07,2.4-2.4V2.4c0-1.32-1.07-2.4-2.4-2.4ZM14.39,12.09l-.52,1.9c-.1.38-.45.64-.83.64-5.35,0-9.68-4.34-9.68-9.68,0-.39.26-.73.64-.83l1.9-.52c.42-.11.86.1,1.02.5h0s.87,2.08.87,2.08c.15.35.04.76-.25,1l-1.06.87c.72,1.52,1.95,2.75,3.47,3.47l.87-1.07c.24-.3.65-.4,1-.25l2.07.86c.4.17.62.61.5,1.02Z"/>
</svg>