<?xml version="1.0" encoding="UTF-8"?>
<svg id="Layer_1" data-name="Layer 1" xmlns="http://www.w3.org/2000/svg" viewBox="0 0 17.78 17.78">
  <path d="M15.39,0H2.4C1.07,0,0,1.07,0,2.4v12.99c0,1.32,1.07,2.4,2.4,2.4h12.99c1.32,0,2.4-1.07,2.4-2.4V2.4c0-1.32-1.07-2.4-2.4-2.4ZM14.28,6.92h-2.64c-.23-1.45-.68-2.66-1.25-3.44,1.78.47,3.22,1.76,3.9,3.44ZM11.07,9.1c0,.5-.03.99-.07,1.45h-4.2c-.05-.46-.07-.95-.07-1.45s.03-.99.07-1.45h4.2c.05.46.07.95.07,1.45ZM8.26,3.61c.25-.24.46-.31.63-.31s.38.07.63.31c.26.25.52.63.76,1.17.26.59.48,1.32.61,2.15h-4c.14-.83.35-1.56.61-2.15.24-.54.5-.92.76-1.17ZM7.41,3.49c-.58.78-1.03,1.99-1.25,3.44h-2.65c.68-1.68,2.12-2.97,3.9-3.44ZM3.09,9.1c0-.5.06-.99.18-1.45h2.79c-.05.47-.07.95-.07,1.45s.02.98.07,1.45h-2.79c-.12-.46-.18-.95-.18-1.45ZM3.51,11.28h2.65c.23,1.45.68,2.66,1.25,3.44-1.78-.47-3.22-1.76-3.9-3.44ZM9.52,14.59c-.25.24-.46.32-.63.32s-.38-.07-.63-.31c-.26-.25-.52-.63-.76-1.17h0c-.26-.59-.47-1.32-.61-2.15h4c-.14.83-.35,1.56-.61,2.15-.24.53-.5.92-.76,1.17ZM10.38,14.72c.58-.78,1.02-1.99,1.25-3.44h2.64c-.68,1.68-2.12,2.97-3.9,3.44ZM14.52,10.55h-2.79c.05-.47.07-.95.07-1.45s-.02-.98-.07-1.45h2.79c.12.46.18.95.18,1.45s-.06.99-.18,1.45Z"/>
</svg>